<?xml version="1.0" encoding="UTF-8"?>
<svg id="Layer_1" xmlns="http://www.w3.org/2000/svg" version="1.1" viewBox="0 0 668.04 668.04">
  <!-- Generator: Adobe Illustrator 29.8.2, SVG Export Plug-In . SVG Version: 2.1.1 Build 3)  -->
  <defs>
    <style>
      .st0 {
        fill: #e5d7c5;
      }

      .st1 {
        fill: #066;
      }
    </style>
  </defs>
  <circle class="st0" cx="334.02" cy="334.02" r="334.02"/>
  <path class="st1" d="M393.64,289.79l16.54-51.12,25.92-61.27-36.65-30.49-43.43-69.04-48.5,6.77-124.13-2.91h-.69s.02.05.02.05l.08.23,46.15,139.43,67.49,90.16-8.53,57.57-67.3,62.89,22.62,142.72.29,1.83,106.37.25,54.98,26.35,47.78-222.49.23-.96-59.24-89.96ZM350.43,566.46l-31.01-103.06,63.03-8-32.02,111.06ZM320.02,458.69l30.6-76.02,31.59,68.12-62.19,7.9ZM348.56,370.73l-46.8-59.74,54.83-70.78c-1.25,21.99-5.41,88.84-8.04,130.52ZM386.24,448.54l-32.11-69.23,91.3,3.01-59.2,66.22ZM446.06,377.75l-93.15-3.07c.61-9.63,2.83-44.95,4.86-77.93l32.21-4.16,56.08,85.16ZM389.37,288.04l-31.31,4.04c1.59-25.7,3-49.08,3.39-56.61l43.98,2.93-16.06,49.64ZM407.2,233.91l-46.71-3.11-49.94-69.3,119.04,19.5-22.39,52.92ZM309.88,88.95l42.58-5.94-3.31,80.15-41.34-6.77,2.08-67.44ZM356.86,87.84l37.36,59.38-40.39,13.85,3.03-73.23ZM427.2,175.95l-69.43-11.37,39.58-13.58,29.85,24.95ZM305.28,89.19l-2,65-104.32-67.5,106.33,2.49ZM188.83,85.62l112.67,72.9-70.24,55.27-42.43-128.17ZM232.65,218.53l72.33-56.91,51.41,71.35-57.51,74.23-66.23-88.67ZM300.34,316.63l44.96,57.4-52.62-5.74,7.65-51.66ZM290.87,372.71l56.34,6.17-32.12,79.78-87.54-26.78,63.32-59.17ZM225.93,436.19l88.65,27.12,32.8,108.99-99.91-.08-21.54-136.03ZM401.51,596.5l-48.29-23.14,34.46-119.54,58.44-65.37-44.61,208.05Z"/>
</svg>