<?xml version="1.0" encoding="UTF-8"?>
<svg id="Layer_1" xmlns="http://www.w3.org/2000/svg" version="1.1" viewBox="0 0 417.07 200.71">
  <!-- Generator: Adobe Illustrator 29.8.2, SVG Export Plug-In . SVG Version: 2.1.1 Build 3)  -->
  <defs>
    <style>
      .st0 {
        fill: #066;
      }
    </style>
  </defs>
  <path class="st0" d="M51.65,69.28h-5.35v-23.09h5.35v23.09ZM63.07,55.26l11.51,14.02h4.39v-23.09h-5.28v14.02l-11.48-14.02h-4.42v23.09h5.28v-14.02ZM92.75,65.39c-2.77,0-5.68-.99-7.62-2.41l-1.82,4.02c2.05,1.58,5.74,2.67,9.4,2.67,6.6,0,9.8-3.3,9.8-7.16,0-8.48-13.43-5.54-13.43-9.8,0-1.45,1.22-2.64,4.39-2.64,2.04,0,4.26.59,6.4,1.81l1.65-4.06c-2.14-1.35-5.11-2.04-8.02-2.04-6.57,0-9.73,3.27-9.73,7.19,0,8.58,13.43,5.61,13.43,9.93,0,1.42-1.29,2.47-4.45,2.47v.02ZM111.3,69.28h5.34v-18.74h7.39v-4.35h-20.12v4.35h7.39s0,18.74,0,18.74ZM132.92,46.19h-5.34v23.09h5.34v-23.09ZM143.85,69.28h5.34v-18.74h7.39v-4.35h-20.12v4.35h7.39v18.74ZM169.99,69.68c6.57,0,10.46-3.76,10.46-10.56v-12.93h-5.28v12.74c0,4.39-1.88,6.2-5.15,6.2s-5.15-1.82-5.15-6.2v-12.74h-5.35v12.93c0,6.8,3.9,10.56,10.46,10.56h0ZM190.78,69.28h5.35v-18.74h7.39v-4.35h-20.13v4.35h7.39v18.74ZM205.28,57.74c0-6.86,5.35-11.94,12.64-11.94s12.64,5.05,12.64,11.94-5.38,11.94-12.64,11.94-12.64-5.08-12.64-11.94ZM210.69,57.74c0,4.39,3.1,7.39,7.23,7.39s7.23-3,7.23-7.39-3.1-7.39-7.23-7.39-7.23,3-7.23,7.39ZM46.15,154.5h1.36v-9.52h-1.36v9.52ZM58.43,147.57c-.45-.23-.97-.34-1.55-.34-.65,0-1.22.13-1.71.39-.38.2-.66.49-.88.81v-1.14h-1.25v7.21h1.31v-3.71c0-.53.09-.97.28-1.32s.45-.62.79-.8.75-.27,1.21-.27c.62,0,1.1.17,1.44.53.34.35.51.88.51,1.58v4h1.31v-4.15c0-.71-.13-1.29-.38-1.75-.26-.46-.61-.81-1.06-1.03h-.02ZM69.42,150.9c-.27-.13-.56-.24-.89-.32-.33-.08-.65-.14-.98-.19s-.62-.11-.89-.18-.48-.17-.65-.31c-.17-.13-.25-.32-.25-.56,0-.29.14-.53.42-.71.28-.19.71-.28,1.28-.28.35,0,.71.04,1.06.12s.7.23,1.02.45l.56-1.03c-.31-.21-.71-.37-1.19-.48-.49-.12-.96-.17-1.43-.17-.62,0-1.15.09-1.6.27s-.8.43-1.04.75-.37.71-.37,1.14.08.75.24,1c.16.25.38.45.65.59.27.14.57.25.9.33.32.08.65.14.98.19s.62.1.89.17c.27.06.48.16.65.28.16.13.24.3.24.53,0,.31-.13.55-.4.72-.27.17-.7.26-1.31.26-.47,0-.93-.07-1.39-.22-.45-.14-.83-.32-1.14-.53l-.54,1.03c.31.24.73.44,1.27.6.54.16,1.11.24,1.71.24.64,0,1.2-.09,1.66-.26.46-.18.82-.42,1.07-.74.25-.32.38-.7.38-1.13s-.08-.73-.25-.98c-.17-.24-.38-.44-.65-.57h0ZM77.43,153.48c-.36,0-.64-.1-.84-.31s-.29-.51-.29-.9v-3.9h2.07v-1.07h-2.07v-1.58h-1.31v1.58h-1.22v1.07h1.22v3.96c0,.73.2,1.28.6,1.67s.96.58,1.69.58c.3,0,.59-.04.86-.12.28-.08.51-.21.71-.38l-.41-.94c-.27.23-.61.34-1.02.34h0ZM83.29,154.5h1.31v-7.21h-1.31v7.21ZM83.95,144.21c-.26,0-.46.08-.63.24s-.25.37-.25.61.08.44.25.6.38.24.63.24.48-.08.64-.25c.16-.17.24-.37.24-.62s-.08-.43-.25-.59-.38-.24-.63-.24h0ZM92.57,153.48c-.36,0-.64-.1-.84-.31s-.29-.51-.29-.9v-3.9h2.07v-1.07h-2.07v-1.58h-1.31v1.58h-1.22v1.07h1.22v3.96c0,.73.2,1.28.6,1.67s.96.58,1.69.58c.3,0,.59-.04.86-.12.28-.08.51-.21.71-.38l-.41-.94c-.27.23-.61.34-1.02.34h0ZM103.84,151.02c0,.51-.09.94-.27,1.3s-.44.63-.78.82-.73.28-1.18.28c-.62,0-1.1-.18-1.44-.53-.34-.35-.51-.88-.51-1.59v-4h-1.31v4.15c0,.71.13,1.29.39,1.76s.62.81,1.09,1.04c.47.23,1.01.34,1.62.34s1.12-.13,1.59-.39c.36-.2.63-.49.86-.82v1.13h1.24v-7.21h-1.31v3.72h.01ZM113.11,153.48c-.36,0-.64-.1-.84-.31s-.29-.51-.29-.9v-3.9h2.07v-1.07h-2.07v-1.58h-1.31v1.58h-1.22v1.07h1.22v3.96c0,.73.2,1.28.6,1.67s.96.58,1.69.58c.3,0,.59-.04.86-.12.28-.08.51-.21.71-.38l-.41-.94c-.27.23-.61.34-1.02.34h0ZM125.07,148.99c.32.55.48,1.18.48,1.91s-.16,1.35-.48,1.9-.77.99-1.33,1.31c-.57.32-1.21.48-1.92.48s-1.37-.16-1.93-.48-1.01-.75-1.33-1.31c-.33-.56-.49-1.19-.49-1.9s.16-1.35.49-1.9c.32-.55.77-.99,1.33-1.3.56-.31,1.21-.47,1.93-.47s1.36.16,1.92.47c.57.31,1.01.74,1.33,1.29h0ZM124.23,150.9c0-.52-.1-.96-.31-1.34s-.5-.67-.86-.88c-.37-.21-.78-.31-1.24-.31s-.88.1-1.24.31-.65.5-.87.88-.32.82-.32,1.34.11.96.32,1.34c.22.39.51.68.87.89.36.21.78.31,1.24.31s.88-.1,1.24-.31c.37-.21.66-.5.86-.89.21-.38.31-.83.31-1.34ZM142.38,147.29h1.24v6.22c0,1.27-.32,2.2-.95,2.8-.63.6-1.56.9-2.79.9-.66,0-1.3-.09-1.92-.28s-1.13-.45-1.52-.79l.63-1.01c.34.29.75.52,1.24.69s1,.25,1.54.25c.85,0,1.48-.2,1.88-.6.4-.4.6-1.01.6-1.82v-.62c-.26.32-.55.59-.91.77-.51.26-1.07.39-1.68.39-.7,0-1.32-.15-1.87-.44-.55-.3-.98-.7-1.31-1.23-.32-.53-.48-1.13-.48-1.82s.16-1.31.48-1.83c.32-.52.76-.93,1.31-1.22s1.17-.44,1.87-.44c.61,0,1.18.13,1.68.37.39.19.71.49.98.85v-1.15h-.02ZM142.34,150.7c0-.46-.11-.87-.32-1.22s-.5-.63-.88-.82c-.37-.19-.8-.29-1.28-.29s-.91.1-1.28.29c-.38.2-.67.47-.88.82s-.32.76-.32,1.22.1.87.32,1.22c.21.35.51.63.88.83.38.2.8.3,1.28.3s.91-.1,1.28-.3c.37-.2.66-.48.88-.83.21-.35.32-.76.32-1.22ZM148.96,154.5h1.31v-7.21h-1.31v7.21ZM149.62,144.21c-.26,0-.46.08-.63.24s-.25.37-.25.61.08.44.25.6.38.24.63.24.48-.08.64-.25.24-.37.24-.62-.08-.43-.25-.59-.38-.24-.63-.24h0ZM161.01,147.57c-.45-.23-.97-.34-1.55-.34-.65,0-1.22.13-1.71.39-.38.2-.66.49-.88.81v-1.14h-1.25v7.21h1.31v-3.71c0-.53.09-.97.28-1.32s.45-.62.79-.8.75-.27,1.21-.27c.62,0,1.1.17,1.44.53.34.35.51.88.51,1.58v4h1.31v-4.15c0-.71-.13-1.29-.38-1.75-.26-.46-.61-.81-1.06-1.03h-.02ZM173.78,148.99c.3.56.46,1.21.46,1.95v.19c0,.07,0,.14-.02.2h-5.83c.04.33.13.64.29.92.22.38.53.67.93.88s.86.31,1.37.31c.42,0,.81-.07,1.16-.22.35-.14.66-.36.92-.65l.72.84c-.33.38-.73.67-1.22.87-.49.2-1.03.3-1.62.3-.77,0-1.45-.16-2.03-.48-.59-.32-1.04-.75-1.36-1.31-.32-.55-.48-1.19-.48-1.9s.16-1.35.47-1.9.74-.99,1.29-1.3c.55-.31,1.17-.47,1.86-.47s1.32.16,1.85.46c.53.31.95.74,1.26,1.3h-.02ZM168.64,149.49c-.14.26-.17.59-.21.91h4.55c-.03-.33-.1-.64-.25-.91-.2-.36-.48-.65-.82-.85-.35-.2-.75-.31-1.22-.31s-.86.1-1.21.31c-.35.2-.63.49-.83.86h0ZM180.76,148.68c.37-.21.79-.31,1.26-.31.39,0,.75.08,1.1.25.34.17.63.43.86.78l.99-.64c-.28-.51-.68-.89-1.19-1.15-.51-.26-1.1-.39-1.75-.39-.73,0-1.39.16-1.96.47-.58.31-1.03.75-1.35,1.3-.33.55-.49,1.19-.49,1.9s.16,1.35.49,1.9c.32.55.78.99,1.35,1.31s1.23.48,1.96.48c.65,0,1.24-.13,1.75-.4s.91-.65,1.19-1.15l-.99-.63c-.23.35-.52.61-.86.78s-.71.25-1.1.25c-.47,0-.89-.1-1.26-.31s-.67-.5-.88-.88c-.22-.38-.33-.83-.33-1.35s.11-.96.33-1.34.51-.67.88-.88h0ZM195.76,148.99c.32.55.48,1.18.48,1.91s-.16,1.35-.48,1.9c-.32.55-.77.99-1.33,1.31-.57.32-1.21.48-1.92.48s-1.37-.16-1.93-.48-1.01-.75-1.33-1.31c-.33-.56-.49-1.19-.49-1.9s.16-1.35.49-1.9.77-.99,1.33-1.3,1.21-.47,1.93-.47,1.36.16,1.92.47c.57.31,1.01.74,1.33,1.29h0ZM194.92,150.9c0-.52-.1-.96-.31-1.34-.21-.38-.5-.67-.86-.88-.37-.21-.78-.31-1.24-.31s-.88.1-1.24.31-.65.5-.87.88-.32.82-.32,1.34.11.96.32,1.34c.22.39.51.68.87.89.36.21.78.31,1.24.31s.88-.1,1.24-.31c.37-.21.66-.5.86-.89.21-.38.31-.83.31-1.34ZM200.9,154.5h1.31v-10.09h-1.31v10.09ZM213.11,144.48h-1.66l-1.85,1.77h1.22l2.29-1.77h0ZM213.89,148.99c.32.55.48,1.18.48,1.91s-.16,1.35-.48,1.9c-.32.55-.77.99-1.33,1.31-.57.32-1.21.48-1.92.48s-1.37-.16-1.93-.48-1.01-.75-1.33-1.31c-.33-.56-.49-1.19-.49-1.9s.16-1.35.49-1.9c.32-.55.77-.99,1.33-1.3s1.21-.47,1.93-.47,1.36.16,1.92.47c.57.31,1.01.74,1.33,1.29h0ZM213.05,150.9c0-.52-.1-.96-.31-1.34-.21-.38-.5-.67-.86-.88-.37-.21-.78-.31-1.24-.31s-.88.1-1.24.31-.65.5-.87.88-.33.82-.33,1.34.11.96.33,1.34c.22.39.51.68.87.89.36.21.78.31,1.24.31s.88-.1,1.24-.31c.37-.21.66-.5.86-.89.21-.38.31-.83.31-1.34ZM224.7,147.29h1.24v6.22c0,1.27-.32,2.2-.95,2.8-.63.6-1.56.9-2.79.9-.66,0-1.3-.09-1.92-.28s-1.13-.45-1.52-.79l.63-1.01c.34.29.75.52,1.24.69s1,.25,1.54.25c.85,0,1.48-.2,1.88-.6.4-.4.6-1.01.6-1.82v-.62c-.26.32-.55.59-.91.77-.51.26-1.07.39-1.68.39-.7,0-1.32-.15-1.87-.44-.55-.3-.98-.7-1.31-1.23-.32-.53-.48-1.13-.48-1.82s.16-1.31.48-1.83c.32-.52.76-.93,1.31-1.22s1.17-.44,1.87-.44c.61,0,1.18.13,1.68.37.39.19.71.49.98.85v-1.15h-.02ZM224.66,150.7c0-.46-.11-.87-.32-1.22s-.5-.63-.88-.82c-.37-.19-.8-.29-1.28-.29s-.91.1-1.28.29c-.38.2-.67.47-.88.82s-.32.76-.32,1.22.1.87.32,1.22c.21.35.51.63.88.83.38.2.8.3,1.28.3s.91-.1,1.28-.3c.37-.2.66-.48.88-.83.21-.35.32-.76.32-1.22ZM231.93,144.21c-.26,0-.46.08-.63.24s-.25.37-.25.61.08.44.25.6.38.24.63.24.48-.08.64-.25.24-.37.24-.62-.08-.43-.25-.59-.38-.24-.63-.24h0ZM231.28,154.5h1.31v-7.21h-1.31v7.21ZM239.79,148.68c.37-.21.79-.31,1.26-.31.39,0,.75.08,1.1.25.34.17.63.43.86.78l.99-.64c-.28-.51-.68-.89-1.19-1.15-.51-.26-1.1-.39-1.75-.39-.73,0-1.39.16-1.96.47-.58.31-1.03.75-1.35,1.3-.33.55-.49,1.19-.49,1.9s.16,1.35.49,1.9.78.99,1.35,1.31,1.23.48,1.96.48c.65,0,1.24-.13,1.75-.4s.91-.65,1.19-1.15l-.99-.63c-.23.35-.52.61-.86.78s-.71.25-1.1.25c-.47,0-.89-.1-1.26-.31s-.67-.5-.88-.88c-.22-.38-.32-.83-.32-1.35s.11-.96.32-1.34c.22-.38.51-.67.88-.88h0ZM254.78,148.99c.32.55.48,1.18.48,1.91s-.16,1.35-.48,1.9c-.32.55-.77.99-1.33,1.31-.57.32-1.21.48-1.92.48s-1.37-.16-1.93-.48-1.01-.75-1.33-1.31c-.33-.56-.49-1.19-.49-1.9s.16-1.35.49-1.9c.32-.55.77-.99,1.33-1.3s1.21-.47,1.93-.47,1.36.16,1.92.47c.57.31,1.01.74,1.33,1.29h0ZM253.94,150.9c0-.52-.1-.96-.31-1.34-.21-.38-.5-.67-.86-.88-.37-.21-.78-.31-1.24-.31s-.88.1-1.24.31-.65.5-.87.88-.33.82-.33,1.34.11.96.33,1.34c.22.39.51.68.87.89.36.21.78.31,1.24.31s.88-.1,1.24-.31c.37-.21.66-.5.86-.89.21-.38.31-.83.31-1.34ZM271.93,144.41h1.31v10.09h-1.25v-1.19c-.25.35-.54.65-.9.85-.49.28-1.05.41-1.67.41-.7,0-1.32-.15-1.87-.46s-.98-.74-1.3-1.29c-.32-.55-.48-1.2-.48-1.93s.16-1.38.48-1.92c.32-.55.75-.98,1.3-1.29s1.17-.46,1.87-.46c.61,0,1.15.14,1.64.41.34.19.62.47.87.8v-4.02ZM271.94,150.9c0-.52-.1-.96-.32-1.34-.21-.38-.5-.67-.87-.88s-.78-.31-1.23-.31-.88.1-1.24.31-.65.5-.87.88-.33.82-.33,1.34.11.96.33,1.34c.22.39.51.68.87.89.36.21.78.31,1.24.31s.86-.1,1.23-.31c.37-.21.66-.5.87-.89.21-.38.32-.83.32-1.34ZM284.62,148.99c.3.56.46,1.21.46,1.95v.19c0,.07-.01.14-.02.2h-5.83c.04.33.13.64.29.92.22.38.53.67.93.88s.86.31,1.38.31c.42,0,.81-.07,1.16-.22.35-.14.66-.36.92-.65l.72.84c-.33.38-.73.67-1.22.87-.49.2-1.03.3-1.62.3-.77,0-1.45-.16-2.03-.48-.59-.32-1.04-.75-1.36-1.31-.32-.55-.48-1.19-.48-1.9s.16-1.35.47-1.9.74-.99,1.29-1.3c.55-.31,1.17-.47,1.86-.47s1.32.16,1.85.46c.53.31.95.74,1.26,1.3h-.03ZM279.48,149.49c-.14.26-.17.59-.21.91h4.55c-.03-.33-.1-.64-.25-.91-.2-.36-.48-.65-.82-.85-.35-.2-.75-.31-1.22-.31s-.86.1-1.21.31c-.35.2-.63.49-.83.86h-.01ZM300.66,144.98l4.32,9.52h-1.43l-1.05-2.38h-5.06l-1.05,2.38h-1.4l4.31-9.52h1.36ZM302.03,151.03l-2.05-4.67-2.05,4.67h4.11-.01ZM309.06,154.5h1.31v-10.09h-1.31v10.09ZM315.71,154.5h1.31v-7.21h-1.31v7.21ZM316.36,144.21c-.26,0-.46.08-.63.24s-.25.37-.25.61.08.44.25.6.38.24.63.24.48-.08.64-.25.24-.37.24-.62-.08-.43-.25-.59-.38-.24-.63-.24h0ZM324.22,148.68c.37-.21.79-.31,1.26-.31.39,0,.75.08,1.1.25.34.17.63.43.86.78l.99-.64c-.28-.51-.68-.89-1.19-1.15-.51-.26-1.1-.39-1.75-.39-.73,0-1.39.16-1.96.47-.58.31-1.03.75-1.35,1.3-.33.55-.49,1.19-.49,1.9s.16,1.35.49,1.9.78.99,1.35,1.31,1.23.48,1.96.48c.65,0,1.24-.13,1.75-.4s.91-.65,1.19-1.15l-.99-.63c-.23.35-.52.61-.86.78s-.71.25-1.1.25c-.47,0-.89-.1-1.26-.31s-.67-.5-.88-.88c-.22-.38-.32-.83-.32-1.35s.11-.96.32-1.34c.22-.38.51-.67.88-.88h0ZM337.89,147.95c.53.48.8,1.21.8,2.2v4.35h-1.24v-1c-.18.28-.4.52-.72.71-.44.25-.98.37-1.64.37-.54,0-1-.09-1.41-.27-.4-.18-.71-.43-.93-.75s-.33-.69-.33-1.09.09-.74.28-1.06.49-.57.91-.76.99-.28,1.71-.28h2.07v-.26c0-.55-.16-.98-.48-1.29-.32-.3-.8-.46-1.45-.46-.42,0-.84.07-1.25.21-.41.14-.75.33-1.03.56l-.55-.98c.37-.3.82-.53,1.34-.69s1.07-.24,1.64-.24c.99,0,1.75.24,2.29.72h-.01ZM337.38,152.3v-1.01h-2.01c-.65,0-1.09.11-1.32.33s-.34.48-.34.79c0,.35.14.64.42.85s.67.32,1.17.32.92-.11,1.28-.33c.37-.22.63-.53.79-.95h0ZM349.37,147.57c-.45-.23-.97-.34-1.55-.34-.65,0-1.22.13-1.71.39-.38.2-.66.49-.88.81v-1.14h-1.25v7.21h1.31v-3.71c0-.53.09-.97.28-1.32s.45-.62.79-.8.75-.27,1.21-.27c.62,0,1.1.17,1.44.53.34.35.51.88.51,1.58v4h1.31v-4.15c0-.71-.13-1.29-.38-1.75-.26-.46-.61-.81-1.06-1.03h-.02ZM358.7,153.48c-.36,0-.64-.1-.84-.31-.2-.21-.29-.51-.29-.9v-3.9h2.07v-1.07h-2.07v-1.58h-1.31v1.58h-1.22v1.07h1.22v3.96c0,.73.2,1.28.6,1.67s.96.58,1.69.58c.3,0,.59-.04.86-.12.28-.08.51-.21.71-.38l-.41-.94c-.27.23-.61.34-1.02.34h.01ZM370.37,148.99c.3.56.46,1.21.46,1.95v.19c0,.07-.01.14-.02.2h-5.83c.04.33.13.64.29.92.22.38.53.67.93.88s.86.31,1.37.31c.42,0,.81-.07,1.16-.22.35-.14.66-.36.92-.65l.72.84c-.33.38-.73.67-1.22.87-.49.2-1.03.3-1.62.3-.77,0-1.45-.16-2.03-.48-.59-.32-1.04-.75-1.36-1.31-.32-.55-.48-1.19-.48-1.9s.16-1.35.47-1.9.74-.99,1.29-1.3c.55-.31,1.17-.47,1.86-.47s1.32.16,1.85.46c.53.31.95.74,1.26,1.3h-.02ZM365.23,149.49c-.14.26-.17.59-.21.91h4.55c-.03-.33-.1-.64-.25-.91-.2-.36-.48-.65-.82-.85-.35-.2-.75-.31-1.22-.31s-.86.1-1.21.31c-.35.2-.63.49-.83.86h-.01ZM52.04,102.08h-5.9v-13.48h5.9c4.37,0,7.35,2.7,7.35,6.74s-2.98,6.74-7.35,6.74h0ZM51.92,99.97c3.01,0,4.95-1.83,4.95-4.62s-1.94-4.62-4.95-4.62h-3.28v9.25h3.28ZM74.31,97.65l3.11,4.43h-2.7l-2.76-3.95c-.17.02-.35.02-.52.02h-3.05v3.93h-2.5v-13.48h5.55c3.55,0,5.74,1.81,5.74,4.79,0,2.04-1.04,3.55-2.87,4.26h0ZM74.66,93.39c0-1.7-1.14-2.68-3.33-2.68h-2.93v5.38h2.93c2.19,0,3.33-1,3.33-2.7ZM86.45,99.02c-.87,0-1.58.63-1.58,1.6s.71,1.6,1.58,1.6,1.58-.67,1.58-1.6-.71-1.6-1.58-1.6ZM112.38,94.75l5.18,7.42h-5.74l-4.45-6.43h-4.92v6.43h-5.35v-23.09h10c6.17,0,10.03,3.2,10.03,8.38,0,3.46-1.75,6-4.75,7.29h0ZM111.72,87.46c0-2.54-1.65-4.03-4.92-4.03h-4.35v8.05h4.35c3.27,0,4.92-1.52,4.92-4.02ZM129.28,79.08h5.28l10.33,23.09h-5.61l-2.04-4.95h-10.72l-2.05,4.95h-5.48l10.29-23.09ZM131.89,84.32l-3.66,8.84h7.33l-3.66-8.84h0ZM147.97,102.17h5.35v-8.41h10.69v-4.29h-10.69v-6.1h12.11v-4.29h-17.45v23.09h-.01ZM171.2,102.17h-5.48l10.29-23.09h5.28l10.33,23.09h-5.61l-2.04-4.95h-10.72l-2.05,4.95ZM174.96,93.16h7.33l-3.66-8.84-3.66,8.84h0ZM212.16,83.37v-4.29h-17.45v23.09h17.88v-4.29h-12.57v-5.34h10.72v-4.16h-10.72v-5.01h12.14,0ZM234.44,97.82h-11.58v-18.74h-5.35v23.09h16.93v-4.35ZM253.46,93.76h10.69v-4.29h-10.69v-6.1h12.11v-4.29h-17.45v23.09h5.35v-8.41h0ZM275.21,102.17h-5.35v-23.09h10c6.17,0,10.03,3.2,10.03,8.38,0,3.46-1.75,6-4.75,7.29l5.18,7.42h-5.74l-4.45-6.43h-4.92v6.43h0ZM275.21,91.48h4.35c3.27,0,4.92-1.52,4.92-4.02s-1.65-4.03-4.92-4.03h-4.35v8.05ZM307.32,79.08l10.33,23.09h-5.61l-2.04-4.95h-10.72l-2.05,4.95h-5.48l10.29-23.09h5.28ZM308.31,93.16l-3.66-8.84-3.66,8.84h7.33,0ZM326.08,79.08h-5.35v23.09h5.35v-23.09ZM349.14,97.82h-11.58v-18.74h-5.35v23.09h16.93v-4.35ZM370.7,97.88h-12.57v-5.34h10.72v-4.16h-10.72v-5.01h12.14v-4.29h-17.45v23.09h17.88v-4.29h0ZM64.1,120.68c0,4.89-3.54,7.84-9.38,7.84h-6.17v7.25h-2.43v-22.96h8.6c5.84,0,9.38,2.95,9.38,7.87ZM61.67,120.68c0-3.67-2.43-5.77-7.02-5.77h-6.1v11.48h6.1c4.59,0,7.02-2.1,7.02-5.71h0ZM77.74,110.94l5.32-4.07h-3.12l-4.5,4.07h2.3ZM72.1,125.14h11.88v-2.07h-11.88v-8.17h13.32v-2.1h-15.75v22.96h16.24v-2.1h-13.81v-8.53h0ZM109.79,135.77h-2.66l-5.25-7.38c-.59.06-1.18.1-1.84.1h-6.17v7.28h-2.43v-22.96h8.6c5.84,0,9.38,2.95,9.38,7.87,0,3.61-1.9,6.13-5.25,7.22l5.61,7.87h.01ZM107,120.68c0-3.67-2.43-5.77-7.02-5.77h-6.1v11.52h6.1c4.59,0,7.02-2.13,7.02-5.74h0ZM117.44,125.14h11.88v-2.07h-11.88v-8.17h13.32v-2.1h-15.75v22.96h16.24v-2.1h-13.81v-8.53h0ZM154.42,114.48v-1.67h-18.21v2.1h14.99l-15.22,19.19v1.67h18.83v-2.1h-15.58l15.19-19.19ZM155.56,127.9h8.59v-2.03h-8.59v2.03ZM182.62,114.78c2.62,0,4.92.82,6.79,2.72l1.54-1.54c-2.03-2.23-5.05-3.35-8.4-3.35-6.92,0-12.04,4.95-12.04,11.68s5.12,11.68,12,11.68c3.38,0,6.4-1.15,8.43-3.38l-1.54-1.54c-1.87,1.94-4.17,2.76-6.79,2.76-5.55,0-9.71-4.07-9.71-9.52s4.17-9.51,9.71-9.51h0ZM212.69,125.86c0,5.45-2.56,7.94-7.06,7.94s-7.02-2.5-7.02-7.94v-13.05h-2.43v13.15c0,6.59,3.58,10.01,9.45,10.01s9.42-3.41,9.42-10.01v-13.15h-2.36v13.05ZM239.35,135.77l-2.75-6.13h-12.79l-2.76,6.13h-2.53l10.5-22.96h2.4l10.5,22.96h-2.57ZM235.71,127.67l-5.51-12.34-5.51,12.34h11.02,0ZM267.69,124.29c0,6.76-4.95,11.48-12.3,11.48h-9.35v-22.96h9.35c7.35,0,12.3,4.72,12.3,11.48h0ZM265.29,124.29c0-5.51-3.94-9.38-10.04-9.38h-6.79v18.76h6.79c6.1,0,10.04-3.87,10.04-9.38ZM286.18,127.9l5.61,7.87h-2.66l-5.25-7.38c-.59.06-1.18.1-1.84.1h-6.17v7.28h-2.43v-22.96h8.59c5.84,0,9.38,2.95,9.38,7.87,0,3.61-1.9,6.13-5.25,7.22h.02ZM289,120.68c0-3.67-2.43-5.77-7.02-5.77h-6.1v11.52h6.1c4.59,0,7.02-2.13,7.02-5.74h0ZM317.21,135.77h-2.56l-2.75-6.13h-12.79l-2.76,6.13h-2.53l10.5-22.96h2.4l10.5,22.96h0ZM311.01,127.67l-5.51-12.34-5.51,12.34h11.02ZM342.98,124.29c0,6.76-4.95,11.48-12.3,11.48h-9.35v-22.96h9.35c7.35,0,12.3,4.72,12.3,11.48h0ZM340.59,124.29c0-5.51-3.94-9.38-10.04-9.38h-6.79v18.76h6.79c6.1,0,10.04-3.87,10.04-9.38ZM346.72,124.29c0-6.69,5.12-11.68,12.07-11.68s12.04,4.95,12.04,11.68-5.15,11.68-12.04,11.68-12.07-4.98-12.07-11.68ZM349.11,124.29c0,5.48,4.13,9.52,9.68,9.52s9.61-4.03,9.61-9.52-4.1-9.51-9.61-9.51-9.68,4.03-9.68,9.51Z"/>
</svg>